<?xml version="1.0" encoding="utf-8"?>
<!-- Generator: Adobe Illustrator 19.0.0, SVG Export Plug-In . SVG Version: 6.00 Build 0)  -->
<svg version="1.0" xmlns="http://www.w3.org/2000/svg" xmlns:xlink="http://www.w3.org/1999/xlink" x="0px" y="0px" width="107.1px"
	 height="186.1px" viewBox="0 0 107.1 186.1" style="enable-background:new 0 0 107.1 186.1;" xml:space="preserve">
<style type="text/css">
	.st0{display:none;}
	.st1{display:inline;fill:#EFDABF;}
	.st2{display:inline;fill:#FFFFFF;}
	.st3{display:inline;fill:#275935;}
	.st4{display:inline;fill:#545454;}
	.st5{display:inline;opacity:0.2;}
	.st6{display:inline;fill:#7C7C7C;}
	.st7{display:inline;fill:#494949;}
	.st8{display:inline;fill:#969696;}
	.st9{fill:#F4C6A1;}
	.st10{fill:#F7F8F9;}
	.st11{fill:#D4D7D9;}
	.st12{fill:#E0E1E2;}
</style>
<g id="suit" class="st0">
	<circle id="XMLID_58_" class="st1" cx="53.6" cy="18.6" r="18.6"/>
	<polygon id="XMLID_54_" class="st2" points="53.6,26.3 19.6,55.3 53.6,72.1 87.6,55.3 	"/>
	<polygon id="XMLID_57_" class="st3" points="63.6,27 43.6,27 50.6,42 46.6,72 53.6,72 53.6,72.1 53.6,72 60.6,72 56.6,42 	"/>
	<polygon id="XMLID_45_" class="st4" points="67.6,45.3 53.6,72.2 39.6,45.1 29.4,142 77.7,142 	"/>
	<polygon id="XMLID_49_" class="st5" points="53.6,26.3 39.6,45.3 40.6,47.3 53.6,28.3 66.6,47.3 67.6,45.3 	"/>
	<path id="XMLID_47_" class="st6" d="M99.6,27.3L71.9,14.1l-4.3,31.2l-14,72.5v0v0l-14-72.5l-4.3-31.2L7.6,27.3l0,0
		c-5.2,1.7-8.3,7-7.4,12.4l10.4,49.6l6,91c27.8,9,28.9,12.2,35-28h4c6.1,40.2,7.2,37,35,28l6-91L107,39.7
		C107.9,34.3,104.8,29.1,99.6,27.3L99.6,27.3z"/>
	<polygon id="XMLID_2_" class="st5" points="56.6,42.3 50.6,42.3 49.7,40.3 57.5,40.3 	"/>
	<circle id="XMLID_46_" class="st6" cx="53.6" cy="80.1" r="2"/>
	<circle id="XMLID_50_" class="st6" cx="53.6" cy="93.1" r="2"/>
	<path id="XMLID_51_" class="st7" d="M53.6,151.9c-4.9-14.2-4.9-14.2,0-34.1C49.9,137.2,49.9,137.2,53.6,151.9z"/>
	<circle id="XMLID_52_" class="st4" cx="53.6" cy="137.1" r="2"/>
	<polygon id="XMLID_55_" class="st8" points="36,19.5 20.2,41.6 30.3,47.2 20.6,59.1 53.6,117.9 39.6,45.3 	"/>
	<polygon id="XMLID_53_" class="st8" points="71.1,19.5 87,41.6 76.8,47.2 86.6,59.1 53.6,117.9 67.6,45.3 	"/>
	<path id="XMLID_48_" class="st2" d="M72.1,11.9c0,0-5.5,12.6-18.5,14.4c-13.2-1.8-18.5-14.4-18.5-14.4s-1.2,17.8,4.5,33.4l14-18
		l14,18C73.2,29.7,72.1,11.9,72.1,11.9z"/>
	<rect id="XMLID_56_" x="79.6" y="74.3" class="st8" width="14" height="4"/>
	<polygon id="XMLID_59_" class="st2" points="81.6,74 86.6,69 91.6,74 	"/>
</g>
<g id="Layer_3" class="st0">
	<circle id="XMLID_79_" class="st1" cx="53.6" cy="18.6" r="18.6"/>
</g>
<g id="Layer_4">
	<path id="XMLID_80_" class="st9" d="M81.7,61.5c3.5-1.5,5.8-5.5,10.6-13.4c3.9-6.6,7-11.8,5.8-16.8c-1.3-5.3-4.9-8.9-4.9-8.9l0,0
		c0,0-11.4-2.7-15-3.7C55.9,13.1,70.4,0,53.6,0c-17,0-2.4,12.9-24.6,18.5C25.3,19.5,13.9,22,13.9,22c0,0,0,0,0,0s-3.7,3.8-5,9.1
		c-1.2,5,1.8,10.4,5.7,16.9c4.7,8,7.3,12,10.7,13.5L81.7,61.5z"/>
</g>
<g id="Layer_2">
	<g id="XMLID_70_">
		<path id="XMLID_78_" class="st10" d="M28.7,100.9c-22.3,16-55.6,159.6-63.8,180.4c4.8,1.2,30.9,9.5,27.2,2.4
			c4.6-0.4,17.6-4.2,20.3,3.8c1.7,5.1-4.1,4.1,2.4,7.2c3.2,1.5,6.8,2.7,10.2,3.3c7.1,1.4,15.8,2.1,23.3,1.2
			c5.9-0.7,16.9-10,18.5,1.6c6.9,0.5,14.7-0.3,20.7-4.1c-0.7-0.5-1.4-2.3-2.3-2.9c1.7-2.7,7.6-7.3,10.6-7.8c5.4-1,6.2,5.9,11.2,7.4
			c9.9,2.9,19-5.6,27.4-11c-7.8-23-32.9-160.6-54.8-181.8C79.1,100.2,28.7,100.9,28.7,100.9z"/>
		<path id="XMLID_77_" class="st11" d="M41.7,39.6c-11.5,4-24.1,9.3-23.9,23.8c0.1,8.8,6.3,12.1,9.2,39.7c0.6,5.6,53.4,5.9,53.2-0.8
			c-0.4-15.9,11.3-30,8.8-44.3c-2.1-12.1-6.3-12.5-5.9-16.7c0.6-6.1,1.9-15.1,5.1-19.8c0.8-1.3-12.4-5.4-14.1-3.8
			C66.4,25.5,61,33,41.7,39.6z"/>
		<path id="XMLID_76_" class="st10" d="M41.7,39.4c-11.5,3.9-24.1,9.1-23.9,23.5c0.1,8.7,8,12.1,9.2,39.2c0.6,5.5,53.4,5.8,53.2-0.8
			c-2-16.6,11.3-29.6,8.8-43.7c-2.1-12-6.3-12.4-5.9-16.5c0.6-6,1.9-14.9,5.1-19.6c0.8-1.2-12.4-5.4-14.1-3.7
			C66.4,25.4,61,32.8,41.7,39.4z"/>
		<path id="XMLID_75_" class="st11" d="M-7.5,283.6c1.4-5.9,2.6-11.8,3.9-17.7l3.9-17.7L8,212.9l7.8-35.3l3.9-17.7
			c1.3-5.9,2.6-11.8,3.7-17.7c-2,11.9-4.5,23.7-6.9,35.5c-2.5,11.8-5,23.6-7.6,35.4c-2.6,11.8-5.2,23.6-7.9,35.3
			C-1.8,260.2-4.5,272-7.5,283.6z"/>
		<path id="XMLID_74_" class="st11" d="M67,299.9c-0.7-9.7-1.2-19.4-1.8-29.1l-1.4-29.1l-1.2-29.1c-0.3-9.7-0.7-19.4-0.8-29.1
			l0.8,14.6l0.8,14.6l1.4,29.1l1.2,29.1l0.5,14.6L67,299.9z"/>
		<path id="XMLID_73_" class="st11" d="M11.9,292.8l3.9-24.1l3.8-24.1l3.9-24.1l1.9-12.1c0.7-4,1.3-8,1.9-12.1
			c-1,8.1-2.2,16.1-3.4,24.2l-3.7,24.1l-4,24.1l-2,12C13.4,284.8,12.7,288.8,11.9,292.8z"/>
		<path id="XMLID_72_" class="st11" d="M103.4,291.1c-1.2-6.7-2.3-13.4-3.3-20.1L97,250.8l-2.9-20.2c-1-6.7-1.9-13.5-2.7-20.2
			c0.4,3.4,1,6.7,1.5,10.1l1.5,10.1l3,20.2L103.4,291.1z"/>
		<path id="XMLID_71_" class="st11" d="M85.3,293.8c-1.4-12-2.6-24.1-3.8-36.1l-3.5-36.2l-3.3-36.2c-1.1-12.1-2.1-24.1-3-36.2
			c0.5,6,1.1,12.1,1.7,18.1l1.7,18.1l3.4,36.2L85.3,293.8z"/>
	</g>
	<path id="XMLID_69_" class="st12" d="M85.6,21.6c0,0-9.6,14.6-5.8,21.4C80.1,32.9,85.6,21.6,85.6,21.6z"/>
</g>
</svg>
