<?xml version="1.0" encoding="utf-8"?>
<!-- Generator: Adobe Illustrator 19.0.0, SVG Export Plug-In . SVG Version: 6.00 Build 0)  -->
<svg version="1.0" id="suit" xmlns="http://www.w3.org/2000/svg" xmlns:xlink="http://www.w3.org/1999/xlink" x="0px" y="0px"
	 width="107.1px" height="186.1px" viewBox="-425 187.9 107.1 186.1" style="enable-background:new -425 187.9 107.1 186.1;"
	 xml:space="preserve">
<style type="text/css">
	.st0{fill:#F4C6A1;}
	.st1{fill:#FFFFFF;}
	.st2{fill:#275935;}
	.st3{fill:#545454;}
	.st4{opacity:0.2;enable-background:new    ;}
	.st5{fill:#7C7C7C;}
	.st6{fill:#494949;}
	.st7{fill:#969696;}
</style>
<circle id="XMLID_58_" class="st0" cx="-371.4" cy="206.5" r="18.6"/>
<polygon id="XMLID_54_" class="st1" points="-371.4,214.2 -405.4,243.2 -371.4,260 -337.4,243.2 "/>
<polygon id="XMLID_57_" class="st2" points="-361.4,214.9 -381.4,214.9 -374.4,229.9 -378.4,259.9 -371.4,259.9 -371.4,260 
	-371.4,259.9 -364.4,259.9 -368.4,229.9 "/>
<polygon id="XMLID_45_" class="st3" points="-357.4,233.2 -371.4,260.1 -385.4,233 -395.6,329.9 -347.3,329.9 "/>
<polygon id="XMLID_49_" class="st4" points="-371.4,214.2 -385.4,233.2 -384.4,235.2 -371.4,216.2 -358.4,235.2 -357.4,233.2 "/>
<path id="XMLID_47_" class="st5" d="M-325.4,215.2l-27.7-13.2l-4.3,31.2l-14,72.5l0,0l0,0l-14-72.5l-4.3-31.2l-27.7,13.2l0,0
	c-5.2,1.7-8.3,7-7.4,12.4l10.4,49.6l6,91c27.8,9,28.9,12.2,35-28h4c6.1,40.2,7.2,37,35,28l6-91l10.4-49.6
	C-317.1,222.2-320.2,217-325.4,215.2L-325.4,215.2z"/>
<polygon id="XMLID_2_" class="st4" points="-368.4,230.2 -374.4,230.2 -375.3,228.2 -367.5,228.2 "/>
<circle id="XMLID_46_" class="st5" cx="-371.4" cy="268" r="2"/>
<circle id="XMLID_50_" class="st5" cx="-371.4" cy="281" r="2"/>
<path id="XMLID_51_" class="st6" d="M-371.4,339.8c-4.9-14.2-4.9-14.2,0-34.1C-375.1,325.1-375.1,325.1-371.4,339.8z"/>
<circle id="XMLID_52_" class="st3" cx="-371.4" cy="325" r="2"/>
<polygon id="XMLID_55_" class="st7" points="-389,207.4 -404.8,229.5 -394.7,235.1 -404.4,247 -371.4,305.8 -385.4,233.2 "/>
<polygon id="XMLID_53_" class="st7" points="-353.9,207.4 -338,229.5 -348.2,235.1 -338.4,247 -371.4,305.8 -357.4,233.2 "/>
<path id="XMLID_48_" class="st1" d="M-352.9,199.8c0,0-5.5,12.6-18.5,14.4c-13.2-1.8-18.5-14.4-18.5-14.4s-1.2,17.8,4.5,33.4l14-18
	l14,18C-351.8,217.6-352.9,199.8-352.9,199.8z"/>
<rect id="XMLID_56_" x="-345.4" y="262.2" class="st7" width="14" height="4"/>
<polygon id="XMLID_59_" class="st1" points="-343.4,261.9 -338.4,256.9 -333.4,261.9 "/>
</svg>
